/* XPM */
static char *angrydd[] = {
/* columns rows colors chars-per-pixel */
"32 32 257 2",
"   c #000000",
".  c #010009",
"X  c #010901",
"o  c #090100",
"O  c #0A0900",
"+  c #06040A",
"@  c #000212",
"#  c #080416",
"$  c #001200",
"%  c #011608",
"&  c #001816",
"*  c #110200",
"=  c #190801",
"-  c #160118",
";  c #121200",
":  c #1A1B04",
">  c #191013",
",  c #020B38",
"<  c #091028",
"1  c #002F00",
"2  c #00352F",
"3  c #380000",
"4  c #2C0E01",
"5  c #39033F",
"6  c #2A002F",
"7  c #3A3A02",
"8  c #2D2D00",
"9  c #010B41",
"0  c #000C48",
"q  c #000D52",
"w  c #06145C",
"e  c #0C1544",
"r  c #001163",
"t  c #03146C",
"y  c #0C1860",
"u  c #071A78",
"i  c #000F61",
"p  c #162256",
"a  c #3A0141",
"s  c #3A0A40",
"d  c #26326C",
"f  c #014101",
"g  c #084608",
"h  c #005200",
"j  c #065C05",
"k  c #155B13",
"l  c #01413B",
"z  c #0A403B",
"x  c #016300",
"c  c #036C02",
"v  c #057704",
"b  c #096814",
"n  c #266C26",
"m  c #044943",
"M  c #00524A",
"N  c #015E55",
"B  c #0E5A53",
"V  c #1C5E62",
"C  c #00635A",
"Z  c #026B61",
"A  c #06766C",
"S  c #0E7D72",
"D  c #157E74",
"F  c #256C65",
"G  c #440405",
"H  c #431B01",
"J  c #520000",
"K  c #5D0505",
"L  c #580C16",
"P  c #522000",
"I  c #5B2807",
"U  c #4D2812",
"Y  c #630000",
"T  c #6B0202",
"R  c #600D07",
"E  c #730A0A",
"W  c #632800",
"Q  c #6C2D03",
"!  c #642804",
"~  c #783305",
"^  c #722100",
"/  c #6C2E24",
"(  c #42054A",
")  c #490052",
"_  c #53055D",
"`  c #5A0365",
"'  c #61026D",
"]  c #6B0778",
"[  c #71127C",
"{  c #64256C",
"}  c #424101",
"|  c #474705",
" . c #525100",
".. c #5D5D02",
"X. c #5A590F",
"o. c #605F03",
"O. c #646301",
"+. c #6C6B02",
"@. c #797808",
"#. c #7C7B13",
"$. c #6C6C26",
"%. c #6F462A",
"&. c #021EAA",
"*. c #0E2289",
"=. c #152A8D",
"-. c #162B94",
";. c #1E3397",
":. c #223383",
">. c #263A9C",
",. c #283DA1",
"<. c #3649A6",
"1. c #3549A9",
"2. c #34469B",
"3. c #7C0D89",
"4. c #7C1589",
"5. c #7E218B",
"6. c #44519B",
"7. c #485BB4",
"8. c #5B6BA9",
"9. c #5666B7",
"0. c #6878C4",
"q. c #707FC6",
"w. c #0A8709",
"e. c #108A0E",
"r. c #178C18",
"t. c #1D961B",
"y. c #169215",
"u. c #22981F",
"i. c #259D24",
"p. c #2C9C2A",
"a. c #39A838",
"s. c #33A631",
"d. c #1A8D24",
"f. c #0D897D",
"g. c #07867B",
"h. c #15897D",
"j. c #49882B",
"k. c #49B348",
"l. c #56B858",
"z. c #46B04B",
"x. c #5DAB57",
"c. c #60C05F",
"v. c #70C66F",
"b. c #179386",
"n. c #188E82",
"m. c #259A89",
"M. c #2E9D8F",
"N. c #2EA297",
"B. c #3CADA2",
"V. c #469096",
"C. c #49B3A8",
"Z. c #54B7AD",
"A. c #59BCB2",
"S. c #40ADA3",
"D. c #69BDB4",
"F. c #4BA899",
"G. c #5FC0B7",
"H. c #6EC4B9",
"J. c #7AC884",
"K. c #7BCBC3",
"L. c #890E0E",
"P. c #931717",
"I. c #8C1B1B",
"U. c #881923",
"Y. c #873C09",
"T. c #91201F",
"R. c #9B2A27",
"E. c #9B3633",
"W. c #A22E2E",
"Q. c #8A400E",
"!. c #8C4517",
"~. c #964C1B",
"^. c #924715",
"/. c #9C5626",
"(. c #995D35",
"). c #A2522F",
"_. c #AB693C",
"`. c #904E47",
"'. c #B34A4A",
"]. c #B7565B",
"[. c #AD4B50",
"{. c #B47549",
"}. c #B67752",
"|. c #B06D45",
" X c #A8685D",
".X c #C77875",
"XX c #881695",
"oX c #831A8C",
"OX c #8D2594",
"+X c #902B95",
"@X c #962EA2",
"#X c #9F26AD",
"$X c #9A45A3",
"%X c #A74AB3",
"&X c #AE54B9",
"*X c #B059BA",
"=X c #B869BD",
"-X c #8E4798",
";X c #B868C2",
":X c #C07ABD",
">X c #C87986",
",X c #F344FF",
"<X c #C27BCB",
"1X c #89880D",
"2X c #8A891A",
"3X c #969517",
"4X c #96952A",
"5X c #969535",
"6X c #8E8E2A",
"7X c #A49E3B",
"8X c #A2A12E",
"9X c #ACAB10",
"0X c #BA835B",
"qX c #B4B34A",
"wX c #BBBA59",
"eX c #A1A151",
"rX c #BFAF6D",
"tX c #979647",
"yX c #C0855E",
"uX c #C6906E",
"iX c #C0BF60",
"pX c #C4C46B",
"aX c #FFFF44",
"sX c #858BBE",
"dX c #BF8483",
"fX c #B399B3",
"gX c #BBBE8C",
"hX c #B3B3B0",
"jX c #8C97D2",
"kX c #99A4DA",
"lX c #B2AACD",
"zX c #93D38F",
"xX c #9AC4BE",
"cX c #A5DCA3",
"vX c #B0D2A3",
"bX c #82CDC7",
"nX c #A3DCD6",
"mX c #BEC5E8",
"MX c #B2E3DE",
"NX c #D4B291",
"BX c #CEB2B2",
"VX c #C48D9A",
"CX c #C88ACA",
"ZX c #D5A3DC",
"AX c #DDB2E3",
"SX c #CECE81",
"DX c #DAD99A",
"FX c #D4C7AB",
"GX c #E8E7BF",
"HX c #E9D0BF",
"JX c #CFEFEC",
"KX c #E9CBED",
"LX c gray100",
"PX c #FFF3FF",
"IX c #F2F4EA",
"UX c #D3DAD3",
"YX c None",
/* pixels */
"YXYXYXYXYXYXJXnXZ.B.C.A.G.S.b.A IXcXl.a.k.l.l.k.y.v YXYXYXYXYXYX",
"YXYXYXYXYXLXJXMXK.Z.C.Z.S.m.g.g.UXcXv.l.k.l.k.u.w.w.v YXYXYXYXYX",
"YXYXYXYXYXbXbXH.A.C.N.h.A Z A b.v.v.c.k.s.r.v c v e.y.YXYXYXYXYX",
"YXYXYXYXYXG.Z.N.b.b.h.C M M Z m.c.s.t.i.e.j h h c t.i.YXYXYXYXYX",
"YXYXYXYXYXG.A.N.b.b.g.N N l A M.l.i.y.y.e.j h h v t.i.YXYXYXYXYX",
"YXYXYXYXYXA.Z.b.g.b.A m l l N h.z.i.e.e.v f f f x t.s.YXYXYXYXYX",
"YXYXYXYXYXD n.A Z Z M & % % l m.d.v c c h % $ $ g p.a.YXYXYXYXYX",
"YXYXYXYXYXl N Z C C M & X X z m.b v x c h $ X X 1 a.k.YXYXYXYXYX",
"YXYXYXYXYX2 M C C C M & + + m F.k x x x h $ X X k l.v.YXYXYXYXYX",
"YXYXYXYXYXS g.Z 2 2 2 B V F V.xXd.v f 1 1 j n n j.zXcXYXYXYXYXYX",
"YXKXZX&X#X%XV.V < # & M.Z.D.xXhXj.k : X % p.l.v.zXgXyXyX|.^.~ YX",
"LXKXAX<X&X%X%X$XoX] ` hXBXuX].'.'.E.T.E R gXFXuX}.}.}.|./.Y.Y.^ ",
"<XCX;X*X%X@X4.] ' ] oX>X.X].'.W.T.E T E P.uXuXyX{.(.~.~ Q ~ Q.^.",
";X&X@XXXXX4.` ) ) ` OX].W.P.P.L.K J J T R.}.(.~.^.Q.I P P Q ~./.",
"*X&X@XXXXX3._ ) ) ' +X].R.P.P.L.J J J T R.{./.^.^.Q.I P P Q ~./.",
"*X&XXX3.4.] a a 5 _ +X[.P.L.L.L.J G G Y R.|./.Q.Q.~ H H H ! ~.).",
"[ oX] ' ` ) - - # s +XT.E T T J = o * G R.!.~ Q Q P = O = H (.|.",
"a _ ' ` ` ) - . + s +XE T Y Y J * o o G E.! Q ! W P O o o H _.{.",
"5 ( _ ` ` ) # . + ( $XL Y Y Y J * * o G [.U W Q W P = o o U }.uX",
"[ [ ' 5 6 6 _ { { -X=XU.T G 3 3 L / / `.uX!.Q 4 4 4 ! %.%.(.NXNX",
",XXX` - + > +X&X:XBXBX).! > = = W.]..XVXfX`./ > + = /.}.uXNXHXLX",
"YX#X5 + O < BXHXNXwXqXqX7X2X@.o.fXlXsX9.7.7.6.:.u y (.|.uXNXIXYX",
"YXYXYXYXYXSXSXpXqXqX8X2X@.+.@.6XsXq.9.7.,.=.u t u -.-.YXYXYXYXYX",
"YXYXYXYXYXiXwX8X3X3X/... . .+.6X8.>.>.-.*.i q q t -.>.YXYXYXYXYX",
"YXYXYXYXYXiXwX4X3X3X1X.. . .+.5X8.>.-.-.*.w q q t ;.2.YXYXYXYXYX",
"YXYXYXYXYXwXqX3X1X1X@.} } 7 X.6X8.;.*.*.u 0 9 9 y ;.,.YXYXYXYXYX",
"YXYXYXYXYX1X2X@.+.+. .: ; ; } 6X:.u t t q # + @ 9 ,.<.YXYXYXYXYX",
"YXYXYXYXYX} O.+.O.O. .; X O } tXy t r r q @ . . e <.9.YXYXYXYXYX",
"YXYXYXYXYX7 | O.O.O. .: O O | eXp i i i q @ . . e 7.0.YXYXYXYXYX",
"YXYXYXYXYX#.1X+.} 8 8 X.$.$.tXgXd u , , , w d d 6.jXkXYXYXYXYXYX",
"YXYXYXYXYXaX3X..; o : 4XqXpXDXGX;.w @ . # >.7.0.kXmXPXYXYXYXYXYX",
"YXYXYXYXYXYX9X} ; O : 4XqXpXDXLX&.9 . . # <.7.0.kXIXYXYXYXYXYXYX"
};
